<svg width="170" height="92" viewBox="0 0 170 92" fill="none" xmlns="http://www.w3.org/2000/svg">
<path d="M23 63.0002L13 58.0002L4.49997 45.5L3.5 39.5L1.99997 37V33.0002V30.0002L1 27L1.5 23L1.99997 10C1.8333 8.83333 1.69997 6.5 2.49997 6.5C3.29997 6.5 4.16663 7.5 4.49997 8V10.5C4.99997 10.1667 6.09997 9.4 6.49997 9L7.49997 8V3H85.5L89 1L91 3.5L99 6.5L100.5 5.5L105 6.5L98 10.5V14.5002H99L102 13H106.5L110.5 11.5002C111.5 12.0001 113.7 13 114.5 13H117C117 13.5001 116.7 14.5002 115.5 14.5002C114 14.5002 113.5 15 112.5 16.5C111.5 18 111.5 18.5 110.5 19.5C109.5 20.5 110 21 110 22.5V25.5C110.167 26.1667 110.7 27.8 111.5 29.0002C112.3 30.2003 112.5 30.8334 112.5 31H113.5L115.5 29.0002C116.5 28.0002 115.5 28 115.5 27.5V24.5C115.5 23.5 116.5 22.5 117 21C117.5 19.5 117.5 19.5 119.5 18.5C121.1 17.7 120.5 18.1667 120 18.5L122 19.5L121.5 21L120.5 22.5C121 22.8333 122.2 23.7 123 24.5C123.8 25.3 123.333 25.5 123 25.5L122 27.5V30.0002C122 31.0002 122 33.0002 125 33.0002C126.5 32.0002 129 32 130.5 31.5002C132 31.0003 132.5 31 133.5 30.0002C134.5 29.0003 136.5 29.0002 139 28C141.5 26.9998 141 26.5002 142.5 25.5C144 24.4998 143.5 23.5 144.5 22.5C145.5 21.5 144.5 20.5002 146 19.5C147.5 18.4998 147.5 19.0002 149 19.0002H158C163 19.0002 160.5 17.5 161.5 14.5002C161.5 12.5003 163 13.0002 164.5 11.5002C166 10.0002 166 11.5002 167.5 11.5002H169V14.5002V19.0002C169 21.0002 168 19.0002 167.5 19.0002C167.1 19.0002 166.333 20.0002 166 20.5002L160.5 26.5002V29.0002V30.0002H157C155.8 30.0002 154.833 31.0002 154.5 31.5002L153 33.0002C153.333 33.1668 154.3 33.6002 155.5 34.0002C157 34.5002 154 36.0002 152 36.0002H150C149.833 36.6668 149.4 38.5002 149 40.5002C148.6 42.5002 147.833 41.3335 147.5 40.5002V39.5002L146 40.5002V43.5002C145.5 42.5002 144.3 40.5002 143.5 40.5002C142.5 40.5002 142.5 41.5002 142.5 43.5002V45.5002C142.5 45.9002 143.167 46.3335 143.5 46.5002C144.167 47.5002 145.3 49.9002 144.5 51.5002C143.5 53.5002 142.5 54.5002 141 57.0002C139.5 59.5002 138 60.5002 136.5 63.0002C135 65.5002 133 64.5002 132 65.5002C131 66.5002 129.5 67.5002 128.5 67.5002C127.5 67.5002 127 70.5002 127.5 72.0002C128 73.5002 128.5 75.0002 129.5 77.0002C130.5 79.0002 130.5 80.5002 132 83.0002C133.5 85.5002 132.5 85.5002 132 88.5002C131.6 90.9002 130.833 90.8335 130.5 90.5002H129.5C128.833 89.8335 127.4 88.1002 127 86.5002C126.5 84.5002 126.5 84.5002 125.5 83.0002C124.5 81.5002 126 81.5002 125.5 79.5002C125 77.5002 125.5 77.0002 125 76.0002C124.5 75.0002 123.5 75.0002 122 74.0002C120.5 73.0002 120.5 72.5002 119.5 72.5002H115.5H111.5H107.5H103V75.0002C103 76.5002 101.5 75.0002 100.5 75.0002H95.5H90C88.5 75.0002 87 76.0002 86 77.0002C85.2 77.8002 83 79.0002 82 79.5002V83.0002C82 84.5002 81 86.5002 80 86.5002H78C77.5 86.5002 76.5 85.0002 75.5 84.5002C74.5 84.0002 74 82.0002 73.5 81.5002C73.1 81.1002 72.3333 79.0002 72 78.0002L66.5 75.0002L63.5 76.0002C63 76.0002 62 75.8002 62 75.0002C62 74.0002 60 70.5002 59.5 69.0002C59.1 67.8002 56.3333 66.8335 55 66.5002L51 69.0002C48.3333 68.5002 42.6 67.5002 41 67.5002H38C36.5 67.0002 33.4 65.9002 33 65.5002C32.6 65.1002 30.1666 64.6668 29 64.5002L23 63.0002Z" stroke="black"/>
</svg>
